<svg width="16" height="17" viewBox="0 0 16 17" fill="none" xmlns="http://www.w3.org/2000/svg">
<path d="M2 3.91296V13.2463M2 11.2463H14M14 13.2463V9.37963C14 8.6329 14 8.2595 13.8547 7.9743C13.7269 7.72343 13.5229 7.51943 13.272 7.39163C12.9868 7.2463 12.6134 7.2463 11.8667 7.2463H7.33333V11.0645M4.66667 8.57963H4.67333M5.33333 8.57963C5.33333 8.94783 5.03485 9.2463 4.66667 9.2463C4.29848 9.2463 4 8.94783 4 8.57963C4 8.21143 4.29848 7.91296 4.66667 7.91296C5.03485 7.91296 5.33333 8.21143 5.33333 8.57963Z" stroke="#CC9933" stroke-width="1.3" stroke-linecap="round" stroke-linejoin="round"/>
</svg>
