<svg width="22" height="23" viewBox="0 0 22 23" fill="none" xmlns="http://www.w3.org/2000/svg">
<path fill-rule="evenodd" clip-rule="evenodd" d="M11.0007 0.837402C8.10376 0.837402 7.7402 0.850069 6.60241 0.901847C5.46684 0.953848 4.69172 1.13363 4.01349 1.39741C3.31193 1.66986 2.71681 2.0343 2.12392 2.62742C1.53058 3.22032 1.16613 3.81543 0.892792 4.51677C0.628344 5.19523 0.448342 5.97057 0.397231 7.10569C0.346341 8.24348 0.333008 8.60726 0.333008 11.5042C0.333008 14.4011 0.345897 14.7635 0.397453 15.9013C0.449676 17.0369 0.629455 17.812 0.893014 18.4903C1.16568 19.1918 1.53013 19.7869 2.12325 20.3798C2.71592 20.9732 3.31104 21.3385 4.01216 21.611C4.69083 21.8747 5.46617 22.0545 6.60152 22.1065C7.73931 22.1583 8.10265 22.171 10.9993 22.171C13.8965 22.171 14.2589 22.1583 15.3967 22.1065C16.5323 22.0545 17.3083 21.8747 17.987 21.611C18.6883 21.3385 19.2825 20.9732 19.8752 20.3798C20.4686 19.7869 20.833 19.1918 21.1063 18.4905C21.3686 17.812 21.5486 17.0367 21.6019 15.9016C21.653 14.7638 21.6663 14.4011 21.6663 11.5042C21.6663 8.60726 21.653 8.2437 21.6019 7.10591C21.5486 5.97034 21.3686 5.19523 21.1063 4.517C20.833 3.81543 20.4686 3.22032 19.8752 2.62742C19.2819 2.03408 18.6885 1.66963 17.9863 1.39741C17.3063 1.13363 16.5307 0.953848 15.3952 0.901847C14.2574 0.850069 13.8952 0.837402 10.9973 0.837402H11.0007ZM10.0437 2.75961C10.3277 2.75917 10.6446 2.75961 11.0006 2.75961C13.8487 2.75961 14.1862 2.76984 15.3109 2.82095C16.3509 2.8685 16.9154 3.04228 17.2914 3.18829C17.7891 3.38162 18.144 3.61274 18.5172 3.98607C18.8905 4.35941 19.1216 4.71497 19.3154 5.21275C19.4614 5.58831 19.6354 6.15276 19.6827 7.19277C19.7338 8.31723 19.7449 8.65501 19.7449 11.5017C19.7449 14.3484 19.7338 14.6862 19.6827 15.8106C19.6352 16.8507 19.4614 17.4151 19.3154 17.7907C19.122 18.2884 18.8905 18.6429 18.5172 19.016C18.1438 19.3893 17.7894 19.6205 17.2914 19.8138C16.9158 19.9605 16.3509 20.1338 15.3109 20.1814C14.1864 20.2325 13.8487 20.2436 11.0006 20.2436C8.15238 20.2436 7.81482 20.2325 6.69036 20.1814C5.65035 20.1334 5.0859 19.9596 4.70967 19.8136C4.21189 19.6202 3.85633 19.3891 3.483 19.0158C3.10966 18.6424 2.87854 18.2878 2.68476 17.7898C2.53876 17.4142 2.36476 16.8498 2.31743 15.8098C2.26632 14.6853 2.25609 14.3475 2.25609 11.499C2.25609 8.65057 2.26632 8.31456 2.31743 7.19011C2.36498 6.15009 2.53876 5.58564 2.68476 5.20964C2.8781 4.71186 3.10966 4.3563 3.483 3.98296C3.85633 3.60962 4.21189 3.37851 4.70967 3.18473C5.08568 3.03806 5.65035 2.86473 6.69036 2.81695C7.67437 2.7725 8.05571 2.75917 10.0437 2.75695V2.75961ZM16.6945 4.53075C15.9878 4.53075 15.4145 5.10342 15.4145 5.81032C15.4145 6.51699 15.9878 7.09033 16.6945 7.09033C17.4011 7.09033 17.9745 6.51699 17.9745 5.81032C17.9745 5.10364 17.4011 4.53075 16.6945 4.53075ZM11.0007 6.02632C7.97555 6.02632 5.52286 8.47901 5.52286 11.5042C5.52286 14.5293 7.97555 16.9809 11.0007 16.9809C14.0258 16.9809 16.4776 14.5293 16.4776 11.5042C16.4776 8.47901 14.0258 6.02632 11.0007 6.02632ZM11.0007 7.94856C12.9642 7.94856 14.5562 9.54035 14.5562 11.5042C14.5562 13.4677 12.9642 15.0597 11.0007 15.0597C9.03685 15.0597 7.44506 13.4677 7.44506 11.5042C7.44506 9.54035 9.03685 7.94856 11.0007 7.94856Z" fill="white"/>
</svg>
