<svg width="16" height="17" viewBox="0 0 16 17" fill="none" xmlns="http://www.w3.org/2000/svg">
<path d="M11.9997 14.5796V15.2463C12.3679 15.2463 12.6663 14.9478 12.6663 14.5796H11.9997ZM3.99968 14.5796H3.33301C3.33301 14.9478 3.63149 15.2463 3.99968 15.2463V14.5796ZM5.99968 4.57963C5.63149 4.57963 5.33301 4.87811 5.33301 5.2463C5.33301 5.61449 5.63149 5.91297 5.99968 5.91297V4.57963ZM6.66634 5.91297C7.03454 5.91297 7.33301 5.61449 7.33301 5.2463C7.33301 4.87811 7.03454 4.57963 6.66634 4.57963V5.91297ZM5.99968 6.57963C5.63149 6.57963 5.33301 6.87811 5.33301 7.2463C5.33301 7.6145 5.63149 7.91297 5.99968 7.91297V6.57963ZM6.66634 7.91297C7.03454 7.91297 7.33301 7.6145 7.33301 7.2463C7.33301 6.87811 7.03454 6.57963 6.66634 6.57963V7.91297ZM9.33301 6.57963C8.96481 6.57963 8.66634 6.87811 8.66634 7.2463C8.66634 7.6145 8.96481 7.91297 9.33301 7.91297V6.57963ZM9.99968 7.91297C10.3679 7.91297 10.6663 7.6145 10.6663 7.2463C10.6663 6.87811 10.3679 6.57963 9.99968 6.57963V7.91297ZM9.33301 8.57963C8.96481 8.57963 8.66634 8.8781 8.66634 9.2463C8.66634 9.6145 8.96481 9.91297 9.33301 9.91297V8.57963ZM9.99968 9.91297C10.3679 9.91297 10.6663 9.6145 10.6663 9.2463C10.6663 8.8781 10.3679 8.57963 9.99968 8.57963V9.91297ZM5.99968 8.57963C5.63149 8.57963 5.33301 8.8781 5.33301 9.2463C5.33301 9.6145 5.63149 9.91297 5.99968 9.91297V8.57963ZM6.66634 9.91297C7.03454 9.91297 7.33301 9.6145 7.33301 9.2463C7.33301 8.8781 7.03454 8.57963 6.66634 8.57963V9.91297ZM9.33301 4.57963C8.96481 4.57963 8.66634 4.87811 8.66634 5.2463C8.66634 5.61449 8.96481 5.91297 9.33301 5.91297V4.57963ZM9.99968 5.91297C10.3679 5.91297 10.6663 5.61449 10.6663 5.2463C10.6663 4.87811 10.3679 4.57963 9.99968 4.57963V5.91297ZM5.06634 3.2463H10.933V1.91297H5.06634V3.2463ZM11.333 3.6463V14.5796H12.6663V3.6463H11.333ZM11.9997 13.913H3.99968V15.2463H11.9997V13.913ZM4.66634 14.5796V3.6463H3.33301V14.5796H4.66634ZM10.933 3.2463C11.1307 3.2463 11.2389 3.24682 11.3166 3.25317C11.3865 3.25888 11.3713 3.26583 11.333 3.2463L11.9383 2.05829C11.7574 1.96609 11.5775 1.93671 11.4251 1.92427C11.2805 1.91245 11.1087 1.91297 10.933 1.91297V3.2463ZM12.6663 3.6463C12.6663 3.47061 12.6669 3.29876 12.6551 3.15415C12.6426 3.00175 12.6132 2.82193 12.521 2.64098L11.333 3.2463C11.3135 3.20796 11.3204 3.19278 11.3261 3.26272C11.3325 3.34045 11.333 3.44861 11.333 3.6463H12.6663ZM11.333 3.2463L12.521 2.64098C12.3932 2.3901 12.1892 2.18612 11.9383 2.05829L11.333 3.2463ZM5.06634 1.91297C4.89066 1.91297 4.7188 1.91245 4.57419 1.92427C4.4218 1.93671 4.24197 1.96609 4.06102 2.05829L4.66634 3.2463C4.628 3.26583 4.61282 3.25888 4.68276 3.25317C4.76049 3.24682 4.86866 3.2463 5.06634 3.2463V1.91297ZM4.66634 3.6463C4.66634 3.44861 4.66686 3.34045 4.67321 3.26272C4.67892 3.19278 4.68588 3.20796 4.66634 3.2463L3.47834 2.64098C3.38614 2.82193 3.35676 3.00175 3.34431 3.15415C3.33249 3.29876 3.33301 3.47061 3.33301 3.6463H4.66634ZM4.06102 2.05829C3.81014 2.18612 3.60616 2.39009 3.47834 2.64098L4.66634 3.2463L4.06102 2.05829ZM5.99968 5.91297H6.66634V4.57963H5.99968V5.91297ZM5.99968 7.91297H6.66634V6.57963H5.99968V7.91297ZM9.33301 7.91297H9.99968V6.57963H9.33301V7.91297ZM9.33301 9.91297H9.99968V8.57963H9.33301V9.91297ZM5.99968 9.91297H6.66634V8.57963H5.99968V9.91297ZM9.33301 5.91297H9.99968V4.57963H9.33301V5.91297ZM8.66634 12.5796V14.5796H9.99968V12.5796H8.66634ZM7.33301 14.5796V12.5796H5.99968V14.5796H7.33301ZM7.99968 11.913C8.36788 11.913 8.66634 12.2114 8.66634 12.5796H9.99968C9.99968 11.475 9.10428 10.5796 7.99968 10.5796V11.913ZM7.99968 10.5796C6.89508 10.5796 5.99968 11.475 5.99968 12.5796H7.33301C7.33301 12.2114 7.63148 11.913 7.99968 11.913V10.5796Z" fill="#CC9933"/>
</svg>
