<svg width="21" height="17" viewBox="0 0 21 17" fill="none" xmlns="http://www.w3.org/2000/svg">
<path fill-rule="evenodd" clip-rule="evenodd" d="M10.406 5.02389L10.4451 5.66728L9.79476 5.5885C7.42767 5.2865 5.35972 4.26233 3.60391 2.54225L2.74551 1.68878L2.52441 2.31904C2.0562 3.72399 2.35533 5.20772 3.33078 6.20563C3.85102 6.7571 3.73397 6.83588 2.83655 6.50762C2.52441 6.40258 2.25129 6.3238 2.22527 6.36319C2.13423 6.4551 2.44638 7.64997 2.69349 8.12266C3.03164 8.77918 3.72096 9.42257 4.47531 9.80335L5.1126 10.1053L4.35826 10.1185C3.62992 10.1185 3.60391 10.1316 3.68194 10.4073C3.94206 11.2608 4.96954 12.1668 6.11407 12.5607L6.92044 12.8365L6.21811 13.2566C5.17763 13.8606 3.95507 14.202 2.73251 14.2283C2.14724 14.2414 1.66602 14.2939 1.66602 14.3333C1.66602 14.4646 3.25275 15.1999 4.17617 15.4888C6.94645 16.3423 10.237 15.9746 12.7081 14.5171C14.4639 13.4798 16.2197 11.4184 17.0391 9.42257C17.4813 8.35901 17.9235 6.41571 17.9235 5.48345C17.9235 4.87946 17.9625 4.80068 18.6909 4.07851C19.1201 3.65833 19.5232 3.19877 19.6013 3.06747C19.7313 2.81799 19.7183 2.81799 19.055 3.04121C17.9495 3.43512 17.7934 3.3826 18.3397 2.79173C18.7429 2.37156 19.2241 1.61 19.2241 1.38678C19.2241 1.34739 19.029 1.41304 18.8079 1.53121C18.5738 1.66252 18.0536 1.85947 17.6634 1.97765L16.9611 2.20086L16.3238 1.76756C15.9726 1.53121 15.4784 1.26861 15.2183 1.18982C14.555 1.006 13.5405 1.03226 12.9422 1.24235C11.3165 1.83321 10.289 3.35634 10.406 5.02389Z" stroke="white" stroke-width="1.5"/>
</svg>
