<svg width="23" height="17" viewBox="0 0 23 17" fill="none" xmlns="http://www.w3.org/2000/svg">
<path fill-rule="evenodd" clip-rule="evenodd" d="M20.6674 1.29518C21.5853 1.54706 22.3082 2.28925 22.5535 3.23175C22.9994 4.93993 22.9994 8.50407 22.9994 8.50407C22.9994 8.50407 22.9994 12.0681 22.5535 13.7764C22.3082 14.7189 21.5853 15.4611 20.6674 15.7131C19.0038 16.1707 12.3327 16.1707 12.3327 16.1707C12.3327 16.1707 5.66153 16.1707 3.99789 15.7131C3.07996 15.4611 2.35705 14.7189 2.11171 13.7764C1.66602 12.0681 1.66602 8.50407 1.66602 8.50407C1.66602 8.50407 1.66602 4.93993 2.11171 3.23175C2.35705 2.28925 3.07996 1.54706 3.99789 1.29518C5.66153 0.837402 12.3327 0.837402 12.3327 0.837402C12.3327 0.837402 19.0038 0.837402 20.6674 1.29518ZM10.3327 5.504V12.1707L15.666 8.83746L10.3327 5.504Z" stroke="white" stroke-width="1.5"/>
</svg>
