<svg width="156" height="47" viewBox="0 0 156 47" fill="none" xmlns="http://www.w3.org/2000/svg">
<path fill-rule="evenodd" clip-rule="evenodd" d="M0 3.5L20.5261 15.3304L41.0523 3.5V10.3147L23.4394 20.8957L23.5667 33.815L20.3759 35.5235L17.4723 33.8524V20.5174L0 10.5071V3.5Z" fill="black"/>
<path fill-rule="evenodd" clip-rule="evenodd" d="M0 16.2197L13.4671 23.8573V30.8669L5.70284 26.6384V33.096H0V16.2197Z" fill="white"/>
<path fill-rule="evenodd" clip-rule="evenodd" d="M41.0569 16.2197L27.5898 23.8573V30.8669L35.3541 26.6384V33.096H41.0569V16.2197Z" fill="white"/>
<path d="M23.5916 5.15137H21.0234V7.84503H23.5916V5.15137Z" fill="white"/>
<path d="M23.5916 8.74902H21.0234V11.4427H23.5916V8.74902Z" fill="white"/>
<path d="M20.035 5.15137H17.4668V7.84503H20.035V5.15137Z" fill="white"/>
<path d="M20.035 8.74902H17.4668V11.4427H20.035V8.74902Z" fill="white"/>
<path d="M49.127 18.9602H53.873L55.4065 8.39728H55.4548L59.6657 18.9602H61.5643L65.9694 8.39728H66.0183L67.3564 18.9602H72.1272L69.3527 0.608887H64.6066L60.6636 10.4171L56.9395 0.608887H52.2423L49.127 18.9602Z" fill="white"/>
<path d="M82.2785 0C76.9968 0 72.1289 3.8942 72.1289 9.4432C72.1289 15.3819 76.3881 19.5681 82.2785 19.5681C88.1684 19.5681 92.4276 15.3819 92.4276 9.4432C92.4276 3.8942 87.5597 0 82.2785 0ZM82.2785 4.62417C85.126 4.62417 87.4626 6.93656 87.4626 9.46794C87.4626 12.6316 85.126 14.9439 82.2785 14.9439C79.431 14.9439 77.0945 12.6316 77.0945 9.46794C77.0945 6.93656 79.431 4.62417 82.2785 4.62417Z" fill="white"/>
<path d="M98.317 7.69144V0.608887H93.5469V18.9602H98.317V11.4396H105.205V18.9602H109.976V0.608887H105.205V7.69144H98.317Z" fill="white"/>
<path d="M116.743 10.1498V18.9602H121.513V10.1498L128.28 0.608887H122.56L119.128 5.59804L115.696 0.608887H109.977L116.743 10.1498Z" fill="white"/>
<path d="M136.603 15.7718L137.795 18.9602H142.882L135.97 0.608887H130.762L123.703 18.9602H128.765L130.031 15.7718H136.603ZM135.313 12.1207H131.346L133.317 6.27976H133.366L135.313 12.1207H135.313Z" fill="white"/>
<path d="M155.246 1.63088C153.615 0.70605 151.351 0.12207 149.502 0.12207C145.827 0.12207 143.174 2.55572 143.174 6.27979C143.174 9.83313 145.145 10.612 148.139 11.4638C149.161 11.7558 151.035 12.2185 151.035 13.5572C151.035 14.847 149.843 15.4069 148.723 15.4069C147.092 15.4069 145.681 14.555 144.488 13.5083L142.443 17.3537C144.318 18.6676 146.581 19.4465 148.893 19.4465C150.743 19.4465 152.665 18.9355 154.101 17.7187C155.561 16.4777 156 14.6033 156 12.7778C156 9.8084 154.028 8.51858 151.473 7.76387L150.256 7.39888C149.428 7.13102 148.138 6.71717 148.138 5.64634C148.138 4.62438 149.307 4.11279 150.183 4.11279C151.351 4.11279 152.471 4.59964 153.347 5.32962L155.245 1.63028L155.246 1.63088Z" fill="white"/>
<path d="M49.127 34.4493H52.3648V30.3192H54.1988C57.0239 30.3192 58.61 29.0306 58.61 26.0902C58.61 23.2318 56.7597 21.9927 54.0829 21.9927H49.127V34.4493ZM52.3648 24.6025H52.9102C54.1656 24.6025 55.2394 24.6194 55.2394 26.1885C55.2394 27.7082 54.0829 27.7082 52.9102 27.7082H52.3648V24.6025Z" fill="white"/>
<path d="M65.7497 29.3444C67.5173 29.0307 68.476 27.5436 68.476 25.8255C68.476 23.1656 66.6094 21.9922 64.1474 21.9922H59.3066V34.4488H62.5445V29.6575H62.5776L65.6339 34.4488H69.665L65.7491 29.3438L65.7497 29.3444ZM62.5445 24.4705H62.8582C63.9151 24.4705 65.1048 24.669 65.1048 26.0233C65.1048 27.3783 63.9151 27.5762 62.8582 27.5762H62.5445V24.4705Z" fill="white"/>
<path d="M73.0392 21.9922H69.8008V34.4494H73.0392V21.9922Z" fill="white"/>
<path d="M73.666 34.4494H76.8876L77.9288 27.2794H77.962L80.8198 34.4494H82.1084L85.0989 27.2794H85.132L86.0406 34.4494H89.2784L87.3949 21.9922H84.1734L81.4972 28.65L78.9695 21.9922H75.7811L73.666 34.4494Z" fill="white"/>
<path d="M96.9878 24.7347V21.9922H89.9004V34.4494H96.9878V31.7069H93.1382V29.5592H96.7893V26.8167H93.1382V24.7347H96.9878Z" fill="white"/>
<path d="M111.003 24.7347V21.9922H103.916V34.4494H111.003V31.7069H107.154V29.5592H110.806V26.8167H107.154V24.7347H111.003Z" fill="white"/>
<path d="M120.385 22.6865C119.278 22.0585 117.742 21.6621 116.486 21.6621C113.991 21.6621 112.191 23.3145 112.191 25.8417C112.191 28.2536 113.529 28.7827 115.561 29.3606C116.255 29.5591 117.527 29.8728 117.527 30.7813C117.527 31.6573 116.718 32.0368 115.958 32.0368C114.85 32.0368 113.892 31.4582 113.083 30.7482L111.695 33.3586C112.968 34.2508 114.504 34.7793 116.073 34.7793C117.329 34.7793 118.634 34.4324 119.609 33.6065C120.6 32.7637 120.897 31.4914 120.897 30.2529C120.897 28.2373 119.559 27.3619 117.824 26.8497L116.998 26.6018C116.437 26.4202 115.561 26.1391 115.561 25.4121C115.561 24.7183 116.354 24.3715 116.948 24.3715C117.741 24.3715 118.501 24.7021 119.096 25.1974L120.384 22.6859L120.385 22.6865Z" fill="white"/>
<path d="M126.643 24.7347H129.319V21.9922H120.729V24.7347H123.405V34.4494H126.643V24.7347Z" fill="white"/>
<path d="M136.393 32.2848L137.202 34.4488H140.655L135.963 21.9922H132.428L127.637 34.4488H131.073L131.932 32.2848H136.393ZM135.517 29.8065H132.824L134.162 25.8417H134.195L135.517 29.8065Z" fill="white"/>
<path d="M144.881 24.7347H147.558V21.9922H138.967V24.7347H141.644V34.4494H144.881V24.7347Z" fill="white"/>
<path d="M155.076 24.7347V21.9922H147.988V34.4494H155.076V31.7069H151.226V29.5592H154.877V26.8167H151.226V24.7347H155.076Z" fill="white"/>
<path d="M0.0605469 41.5849H0.732002L2.0544 45.4236L3.43411 41.3804L4.82649 45.4236L6.15613 41.5849H6.82638L4.80598 47.0078L3.44135 42.9712L2.08276 47.0078L0.0605469 41.5849Z" fill="black"/>
<path d="M7.9375 46.8034V41.585H8.55768V43.5921H11.3316V41.585H11.959V46.8034H11.3316V44.1833H8.55768V46.8034H7.9375Z" fill="black"/>
<path d="M13.7383 46.8034V41.585H16.4899V42.1545H14.3585V43.6506H16.4899V44.2273H14.3585V46.2266H16.4899V46.8034H13.7383Z" fill="black"/>
<path d="M18.0703 46.8034V41.585H19.2962C19.6455 41.585 19.9019 41.6043 20.0636 41.6435C20.2265 41.6839 20.37 41.7503 20.4943 41.8456C20.6488 41.9662 20.7682 42.1291 20.8533 42.3318C20.9395 42.5351 20.9824 42.7602 20.9824 43.0069C20.9824 43.4334 20.8629 43.7598 20.6246 43.9812C20.3851 44.2038 20.0358 44.3142 19.5749 44.3142H19.4645L21.4571 46.8034H20.6687L18.7641 44.3142H18.6766V46.8034H18.0709H18.0703ZM18.676 42.1104V43.8545H19.149C19.6346 43.8545 19.9592 43.7924 20.1233 43.6675C20.2874 43.5432 20.3688 43.3254 20.3688 43.0141C20.3688 42.6793 20.285 42.4458 20.1161 42.3107C19.9471 42.1768 19.6244 42.1098 19.149 42.1098H18.676V42.1104Z" fill="black"/>
<path d="M22.5156 46.8034V41.585H25.2672V42.1545H23.1358V43.6506H25.2672V44.2273H23.1358V46.2266H25.2672V46.8034H22.5156Z" fill="black"/>
<path d="M29.6313 46.2194H30.0271C30.6684 46.2194 31.1118 46.1916 31.3591 46.1355C31.6059 46.0794 31.8116 45.9847 31.9757 45.8484C32.1898 45.671 32.3527 45.4405 32.4631 45.16C32.5747 44.8777 32.6308 44.5555 32.6308 44.1917C32.6308 43.8268 32.576 43.5058 32.4655 43.2283C32.3551 42.952 32.1917 42.7234 31.9757 42.5424C31.8116 42.4048 31.6035 42.3077 31.3501 42.2492C31.0973 42.1907 30.6569 42.1617 30.0265 42.1617H29.6307V46.22L29.6313 46.2194ZM29.0039 46.8034V41.585H30.006C30.7468 41.585 31.2686 41.623 31.5715 41.6966C31.8743 41.772 32.141 41.8975 32.3684 42.0724C32.6677 42.3035 32.8951 42.5979 33.0495 42.9568C33.204 43.3158 33.2806 43.729 33.2806 44.1978C33.2806 44.6635 33.204 45.075 33.0507 45.4321C32.8975 45.7899 32.6701 46.0843 32.3684 46.3153C32.1398 46.4909 31.8804 46.6157 31.5896 46.6912C31.2976 46.7654 30.8451 46.8028 30.2298 46.8028H30.006H29.0039V46.8034Z" fill="black"/>
<path d="M34.8281 46.8034V41.585H36.054C36.4033 41.585 36.6597 41.6043 36.8214 41.6435C36.9843 41.6839 37.1278 41.7503 37.2521 41.8456C37.4066 41.9662 37.526 42.1291 37.6111 42.3318C37.6973 42.5351 37.7402 42.7602 37.7402 43.0069C37.7402 43.4334 37.6207 43.7598 37.3824 43.9812C37.1429 44.2038 36.7936 44.3142 36.3327 44.3142H36.2223L38.215 46.8034H37.4265L35.5219 44.3142H35.4344V46.8034H34.8287H34.8281ZM35.4338 42.1104V43.8545H35.9068C36.3924 43.8545 36.717 43.7924 36.8811 43.6675C37.0452 43.5432 37.1266 43.3254 37.1266 43.0141C37.1266 42.6793 37.0428 42.4458 36.8739 42.3107C36.7049 42.1768 36.3822 42.1098 35.9068 42.1098H35.4338V42.1104Z" fill="black"/>
<path d="M39.2715 46.8034V41.585H42.0231V42.1545H39.8917V43.6506H42.0231V44.2273H39.8917V46.2266H42.0231V46.8034H39.2715Z" fill="black"/>
<path d="M45.2543 42.7522L44.4248 44.6719H46.085L45.2543 42.7522ZM45.2543 41.3804L47.6276 46.8033H46.9549L46.2775 45.2046H44.2396L43.5621 46.8033H42.8906L45.2543 41.3804Z" fill="black"/>
<path d="M51.1331 47.0078L49.5115 43.2584L48.8557 46.8033H48.25L49.3082 41.3804L51.1331 45.6951L52.958 41.3804L54.0156 46.8033H53.4105L52.7475 43.2584L51.1331 47.0078Z" fill="black"/>
<path d="M57.2489 43.9066C57.5885 44.0514 57.8449 44.2433 58.0162 44.4834C58.1888 44.7229 58.2757 45.0076 58.2757 45.3346C58.2757 45.8136 58.1224 46.2009 57.8172 46.4941C57.5119 46.7873 57.1077 46.9345 56.6034 46.9345C56.1925 46.9345 55.848 46.8302 55.5693 46.6196C55.2918 46.4091 55.1048 46.111 55.0059 45.7243L55.5693 45.4456C55.6459 45.7617 55.7714 46.0019 55.9464 46.1647C56.1207 46.3276 56.3397 46.4097 56.6034 46.4097C56.9146 46.4097 57.1662 46.3198 57.3599 46.1406C57.5523 45.9608 57.6482 45.7268 57.6482 45.4402C57.6482 45.2067 57.5813 45.0046 57.4461 44.8321C57.3122 44.6595 57.1107 44.5148 56.8392 44.3953L56.204 44.1238C55.8571 43.979 55.5983 43.7932 55.4294 43.564C55.2592 43.3365 55.1736 43.0627 55.1736 42.7441C55.1736 42.3731 55.3111 42.0666 55.5874 41.8247C55.8631 41.5828 56.2148 41.4609 56.6432 41.4609C56.9557 41.4609 57.2284 41.5279 57.457 41.6606C57.6869 41.7946 57.866 41.99 57.9933 42.2506L57.4799 42.5782C57.3641 42.3761 57.2332 42.2265 57.0878 42.1282C56.943 42.0298 56.7789 41.9798 56.5961 41.9798C56.3626 41.9798 56.1714 42.0516 56.023 42.1939C55.8746 42.3363 55.8004 42.5173 55.8004 42.7387C55.8004 42.9233 55.8577 43.0838 55.9717 43.2189C56.0845 43.3552 56.2625 43.4741 56.502 43.5791L57.2477 43.9073L57.2489 43.9066Z" fill="black"/>
<path d="M61.7871 46.8034V41.585H64.5387V42.1545H62.4073V43.6506H64.5387V44.2273H62.4073V46.8034H61.7871Z" fill="black"/>
<path d="M66.0254 46.8034V41.585H66.6456V46.8034H66.0254Z" fill="black"/>
<path d="M68.4414 46.8033V41.3804L72.259 45.5491V41.5849H72.8502V47.0078L69.0326 42.8825V46.8033H68.4414Z" fill="black"/>
<path d="M75.2563 46.2194H75.6521C76.2934 46.2194 76.7368 46.1916 76.9841 46.1355C77.2309 46.0794 77.4366 45.9847 77.6007 45.8484C77.8148 45.671 77.9777 45.4405 78.0881 45.16C78.1997 44.8777 78.2558 44.5555 78.2558 44.1917C78.2558 43.8268 78.2009 43.5058 78.0905 43.2283C77.9801 42.952 77.8167 42.7234 77.6007 42.5424C77.4366 42.4048 77.2285 42.3077 76.9751 42.2492C76.7223 42.1907 76.2819 42.1617 75.6515 42.1617H75.2557V46.22L75.2563 46.2194ZM74.6289 46.8034V41.585H75.631C76.3718 41.585 76.8936 41.623 77.1965 41.6966C77.4993 41.772 77.766 41.8975 77.9934 42.0724C78.2926 42.3035 78.5201 42.5979 78.6745 42.9568C78.829 43.3158 78.9056 43.729 78.9056 44.1978C78.9056 44.6635 78.829 45.075 78.6757 45.4321C78.5225 45.7899 78.2951 46.0843 77.9934 46.3153C77.7648 46.4909 77.5054 46.6157 77.2146 46.6912C76.9226 46.7654 76.4701 46.8028 75.8548 46.8028H75.631H74.6289V46.8034Z" fill="black"/>
<path d="M83.5187 46.8034V42.1762H82.0449V41.585H85.6139V42.1762H84.1468V46.8034H83.5187Z" fill="black"/>
<path d="M86.8379 46.8034V41.585H87.4581V43.5921H90.2314V41.585H90.8588V46.8034H90.2314V44.1833H87.4581V46.8034H86.8379Z" fill="black"/>
<path d="M92.6426 46.8034V41.585H95.3942V42.1545H93.2628V43.6506H95.3942V44.2273H93.2628V46.2266H95.3942V46.8034H92.6426Z" fill="black"/>
<path d="M96.9844 46.8034V41.585H97.6046V46.8034H96.9844Z" fill="black"/>
<path d="M99.4043 46.8034V41.585H100.63C100.979 41.585 101.236 41.6043 101.398 41.6435C101.56 41.6839 101.704 41.7503 101.828 41.8456C101.983 41.9662 102.102 42.1291 102.187 42.3318C102.274 42.5351 102.316 42.7602 102.316 43.0069C102.316 43.4334 102.197 43.7598 101.959 43.9812C101.719 44.2038 101.37 44.3142 100.909 44.3142H100.798L102.791 46.8034H102.003L100.098 44.3142H100.011V46.8034H99.4049H99.4043ZM100.01 42.1104V43.8545H100.483C100.969 43.8545 101.293 43.7924 101.457 43.6675C101.621 43.5432 101.703 43.3254 101.703 43.0141C101.703 42.6793 101.619 42.4458 101.45 42.3107C101.281 42.1768 100.958 42.1098 100.483 42.1098H100.01V42.1104Z" fill="black"/>
<path d="M105.994 46.8034V41.585H106.614V43.5921H109.388V41.585H110.015V46.8034H109.388V44.1833H106.614V46.8034H105.994Z" fill="black"/>
<path d="M114.345 46.358C114.63 46.358 114.903 46.3043 115.159 46.1957C115.417 46.0877 115.649 45.9297 115.856 45.7227C116.061 45.5182 116.217 45.2872 116.323 45.0284C116.43 44.7689 116.484 44.4944 116.484 44.2049C116.484 43.9129 116.43 43.6342 116.322 43.3705C116.214 43.1069 116.058 42.8746 115.856 42.6725C115.652 42.468 115.421 42.3124 115.163 42.2056C114.906 42.0982 114.633 42.0451 114.346 42.0451C114.056 42.0451 113.782 42.0988 113.522 42.2056C113.263 42.3124 113.034 42.468 112.835 42.6725C112.631 42.8795 112.475 43.1129 112.368 43.3741C112.261 43.636 112.208 43.9129 112.208 44.2049C112.208 44.4944 112.26 44.7683 112.366 45.0247C112.472 45.2817 112.629 45.514 112.835 45.7227C113.044 45.9321 113.277 46.0901 113.531 46.1969C113.787 46.3043 114.059 46.358 114.346 46.358H114.345ZM117.134 44.2049C117.134 44.5783 117.064 44.93 116.927 45.2594C116.789 45.59 116.588 45.8832 116.325 46.1402C116.06 46.3966 115.756 46.5939 115.414 46.7338C115.069 46.8726 114.714 46.942 114.346 46.942C113.977 46.942 113.623 46.8726 113.282 46.7338C112.941 46.5939 112.638 46.3966 112.374 46.1402C112.108 45.8808 111.906 45.5864 111.766 45.2558C111.627 44.9264 111.559 44.5759 111.559 44.2049C111.559 43.8314 111.628 43.4797 111.766 43.1479C111.906 42.8173 112.108 42.5211 112.374 42.2623C112.635 42.0083 112.937 41.8122 113.28 41.6747C113.622 41.5372 113.977 41.4678 114.346 41.4678C114.717 41.4678 115.073 41.5372 115.417 41.6747C115.76 41.8122 116.063 42.0077 116.325 42.2623C116.588 42.5193 116.789 42.8131 116.927 43.1443C117.064 43.4761 117.134 43.829 117.134 44.2049Z" fill="black"/>
<path d="M121.109 47.0078L119.488 43.2584L118.832 46.8033H118.227L119.285 41.3804L121.109 45.6951L122.934 41.3804L123.992 46.8033H123.386L122.723 43.2584L121.109 47.0078Z" fill="black"/>
<path d="M125.332 46.8034V41.585H128.084V42.1545H125.953V43.6506H128.084V44.2273H125.953V46.2266H128.084V46.8034H125.332Z" fill="black"/>
<path d="M129.821 46.4544C129.821 46.3373 129.863 46.2378 129.945 46.1552C130.029 46.0713 130.129 46.0303 130.244 46.0303C130.364 46.0303 130.465 46.0719 130.548 46.1533C130.632 46.236 130.675 46.3367 130.675 46.455C130.675 46.572 130.633 46.6704 130.55 46.7506C130.466 46.8296 130.365 46.87 130.244 46.87C130.126 46.87 130.025 46.8296 129.943 46.7506C129.862 46.6704 129.82 46.572 129.82 46.455L129.821 46.4544Z" fill="black"/>
<path d="M132.514 46.4544C132.514 46.3373 132.556 46.2378 132.639 46.1552C132.722 46.0713 132.823 46.0303 132.938 46.0303C133.057 46.0303 133.158 46.0719 133.242 46.1533C133.326 46.236 133.368 46.3367 133.368 46.455C133.368 46.572 133.326 46.6704 133.244 46.7506C133.16 46.8296 133.058 46.87 132.937 46.87C132.819 46.87 132.718 46.8296 132.637 46.7506C132.555 46.6704 132.514 46.572 132.514 46.455L132.514 46.4544Z" fill="black"/>
<path d="M135.196 46.4544C135.196 46.3373 135.238 46.2378 135.32 46.1552C135.404 46.0713 135.504 46.0303 135.619 46.0303C135.739 46.0303 135.84 46.0719 135.923 46.1533C136.007 46.236 136.05 46.3367 136.05 46.455C136.05 46.572 136.008 46.6704 135.925 46.7506C135.841 46.8296 135.74 46.87 135.619 46.87C135.501 46.87 135.4 46.8296 135.318 46.7506C135.237 46.6704 135.195 46.572 135.195 46.455L135.196 46.4544Z" fill="black"/>
</svg>
